<svg width="426" height="430" viewBox="0 0 426 430" fill="none" xmlns="http://www.w3.org/2000/svg">
<g opacity="0.07">
<path d="M164.8 107.455C172.226 116.299 175.834 127.731 174.832 139.235C173.829 150.739 168.297 161.374 159.453 168.8C150.609 176.226 139.178 179.834 127.674 178.832C116.169 177.829 105.534 172.297 98.1086 163.453C90.6828 154.609 87.0744 143.178 88.0771 131.674C89.0798 120.169 94.6115 109.534 103.455 102.109C112.299 94.6828 123.731 91.0744 135.235 92.0771C146.739 93.0798 157.374 98.6115 164.8 107.455ZM264.837 23.4585C326.659 97.0858 317.077 207.015 243.45 268.837C169.823 330.659 59.8931 321.077 -1.92854 247.45C-63.7502 173.823 -54.1688 63.8932 19.4585 2.07148C93.0858 -59.7502 203.015 -50.1688 264.837 23.4585ZM238.161 45.8577L184.807 90.656C160.056 61.1784 116.134 57.3501 86.656 82.1012C57.1784 106.852 53.3501 150.775 78.1012 180.253L24.748 225.051C74.1382 283.873 162.229 291.551 221.051 242.161C279.873 192.77 287.551 104.68 238.161 45.8577Z" fill="black"/>
</g>
</svg>
