<svg width="571" height="571" viewBox="0 0 571 571" fill="none" xmlns="http://www.w3.org/2000/svg">
<g opacity="0.07">
<path d="M323.207 307.27C317.434 317.271 307.923 324.568 296.769 327.557C285.614 330.546 273.729 328.981 263.728 323.207C253.728 317.434 246.43 307.923 243.441 296.769C240.452 285.614 242.017 273.729 247.791 263.728C253.565 253.728 263.075 246.43 274.23 243.441C285.384 240.452 297.269 242.017 307.27 247.791C317.271 253.565 324.568 263.075 327.557 274.23C330.546 285.384 328.981 297.269 323.207 307.27ZM436.332 372.583C388.262 455.842 281.676 484.402 198.416 436.332C115.156 388.262 86.5965 281.676 134.667 198.416C182.737 115.156 289.323 86.5965 372.583 134.667C455.842 182.737 484.402 289.323 436.332 372.583ZM406.166 355.166L345.832 320.333C365.078 286.999 353.667 244.412 320.333 225.166C286.999 205.921 244.412 217.332 225.166 250.666L164.833 215.833C126.429 282.35 149.315 367.762 215.833 406.166C282.35 444.569 367.762 421.683 406.166 355.166Z" fill="black"/>
</g>
</svg>
