<svg width="54" height="54" viewBox="0 0 54 54" fill="none" xmlns="http://www.w3.org/2000/svg">
<path opacity="0.3" d="M27 9C36.18 9 43.7625 15.8625 44.865 24.75H35.73C34.7175 20.8575 31.185 18 27 18C22.815 18 19.2825 20.8575 18.2925 24.75H9.13501C10.2375 15.8625 17.82 9 27 9Z" fill="white"/>
<path d="M27 4.5C14.58 4.5 4.5 14.58 4.5 27C4.5 39.42 14.58 49.5 27 49.5C39.42 49.5 49.5 39.42 49.5 27C49.5 14.58 39.42 4.5 27 4.5ZM27 9C36.18 9 43.7625 15.8625 44.865 24.75H35.73C34.7175 20.8575 31.185 18 27 18C22.815 18 19.2825 20.8575 18.2925 24.75H9.135C10.2375 15.8625 17.82 9 27 9ZM31.5 27C31.5 29.475 29.475 31.5 27 31.5C24.525 31.5 22.5 29.475 22.5 27C22.5 24.525 24.525 22.5 27 22.5C29.475 22.5 31.5 24.525 31.5 27ZM27 45C17.82 45 10.2375 38.1375 9.135 29.25H18.27C19.26 33.1425 22.7925 36 26.9775 36C31.1625 36 34.695 33.1425 35.685 29.25H44.82C43.7625 38.1375 36.18 45 27 45Z" fill="white"/>
</svg>
